<?xml version="1.0" encoding="utf-8"?>
<!-- Generator: Adobe Illustrator 26.1.0, SVG Export Plug-In . SVG Version: 6.00 Build 0)  -->
<svg version="1.1" id="Ebene_1" xmlns="http://www.w3.org/2000/svg" xmlns:xlink="http://www.w3.org/1999/xlink" x="0px" y="0px"
	 viewBox="0 0 1280 1280" style="enable-background:new 0 0 1280 1280;" xml:space="preserve">
<style type="text/css">
	.st0{fill:url(#SVGID_1_);}
</style>
<linearGradient id="SVGID_1_" gradientUnits="userSpaceOnUse" x1="295.5" y1="640" x2="983.5" y2="640">
	<stop  offset="1" style="stop-color:#FFFFFF"/>
	<stop  offset="1" style="stop-color:#000000"/>
</linearGradient>
<path class="st0" d="M731.6,568h86.8c15.5,0,28.1-12.6,28.1-28.1v-85.5c0-11.3,9.2-20.5,20.5-20.5h88.5c15.5,0,28.1-12.6,28.1-28.1
	v-81.8c0-15.5-12.6-28.1-28.1-28.1h-80.8c-15.5,0-28.1,12.6-28.1,28.1v86.8c0,15.5-12.6,28.1-28.1,28.1h-86.8
	c-15.5,0-28.1-12.6-28.1-28.1v-86.8c0-15.5-12.6-28.1-28.1-28.1h-69.8c-15.5,0-28.1,12.6-28.1,28.1v86.8c0,15.5-12.6,28.1-28.1,28.1
	h-86.8c-15.5,0-28.1-12.6-28.1-28.1v-86.8c0-15.5-12.6-28.1-28.1-28.1h-82.9c-15.5,0-28,12.5-28,28v82c0,15.5,12.6,28,28,28h94.6
	c11.3,0,20.4,9.1,20.4,20.4v85.5c0,15.5,12.6,28.1,28.1,28.1h82.8c15.5,0,28.1,12.6,28.1,28.1v86.8c0,15.5-12.6,28.1-28.1,28.1
	h-82.8c-15.5,0-28.1,12.6-28.1,28.1v85.5c0,11.3-9.1,20.4-20.4,20.4h-94.6c-15.5,0-28,12.6-28,28V956c0,15.5,12.6,28,28,28h82.9
	c15.5,0,28.1-12.6,28.1-28.1v-91.8c0-15.5,12.6-28.1,28.1-28.1h86.8c15.5,0,28.1,12.6,28.1,28.1v91.8c0,15.5,12.6,28.1,28.1,28.1
	h69.8c15.5,0,28.1-12.6,28.1-28.1v-91.8c0-15.5,12.6-28.1,28.1-28.1h86.8c15.5,0,28.1,12.6,28.1,28.1v91.8
	c0,15.5,12.6,28.1,28.1,28.1h80.8c15.5,0,28.1-12.6,28.1-28.1v-82.8c0-15.5-12.6-28.1-28.1-28.1H867c-11.3,0-20.5-9.1-20.5-20.4
	v-85.5c0-15.5-12.6-28.1-28.1-28.1h-86.8c-15.5,0-28.1-12.6-28.1-28.1v-86.8C703.5,580.6,716.1,568,731.6,568z M711.5,730.1v86.8
	c0,15.5-12.6,28.1-28.1,28.1h-86.8c-15.5,0-28.1-12.6-28.1-28.1v-86.8c0-15.5,12.6-28.1,28.1-28.1h86.8
	C698.9,702,711.5,714.6,711.5,730.1z M682.4,577h-86.8c-15.5,0-28.1-12.6-28.1-28.1v-86.8c0-15.5,12.6-28.1,28.1-28.1h86.8
	c15.5,0,28.1,12.6,28.1,28.1v86.8C710.5,564.4,697.9,577,682.4,577z"/>
</svg>
